<?xml version="1.0" standalone="no"?>
<!DOCTYPE svg PUBLIC "-//W3C//DTD SVG 20010904//EN"
 "http://www.w3.org/TR/2001/REC-SVG-20010904/DTD/svg10.dtd">
<svg version="1.0" xmlns="http://www.w3.org/2000/svg"
 width="260.000000pt" height="260.000000pt" viewBox="0 0 260.000000 260.000000"
 preserveAspectRatio="xMidYMid meet">
<metadata>
Created by potrace 1.14, written by Peter Selinger 2001-2017
</metadata>
<g transform="translate(0.000000,260.000000) scale(0.100000,-0.100000)"
fill="#000000" stroke="none">
<path d="M955 2586 c-15 -10 -18 -29 -20 -96 -2 -68 -5 -86 -20 -97 -27 -19
-52 -16 -69 8 -12 18 -25 22 -78 22 -115 1 -108 14 -108 -199 0 -121 3 -183
10 -179 6 3 10 13 10 22 0 35 53 100 106 128 30 16 54 36 54 45 1 23 57 80 97
96 20 9 63 33 97 54 75 46 136 56 191 29 36 -18 39 -18 51 -1 8 9 16 25 19 34
4 10 24 23 45 29 36 11 45 9 103 -19 36 -18 75 -32 88 -32 14 0 43 -17 69 -40
25 -22 55 -40 68 -40 62 0 134 -62 148 -126 4 -20 23 -41 65 -72 l60 -42 -3
157 -3 157 -65 1 c-54 0 -69 -4 -87 -22 -27 -28 -47 -29 -73 -3 -16 16 -20 33
-20 93 0 39 -5 79 -10 87 -13 21 -696 27 -725 6z"/>
<path d="M1363 2462 c-30 -5 -65 -50 -61 -80 2 -20 23 -41 45 -48 2 0 -6 -18
-17 -39 -23 -45 -27 -123 -7 -131 7 -2 31 3 52 12 l39 16 -52 -48 c-28 -27
-56 -60 -61 -74 -8 -24 -9 -24 -20 15 -6 22 -18 49 -26 59 -21 28 -19 39 6 25
17 -9 20 -8 14 2 -5 6 -7 31 -7 55 2 38 -1 43 -28 52 -40 15 -40 42 1 42 l30
0 -20 29 c-34 47 -72 57 -139 37 -83 -26 -102 -41 -102 -79 0 -50 14 -63 34
-33 9 14 25 26 36 26 10 0 28 9 39 21 11 12 22 16 25 11 10 -17 -4 -40 -27
-46 -12 -3 -35 -16 -52 -30 -30 -24 -30 -24 -11 -45 19 -21 19 -21 -2 -22 -32
-2 -34 -3 -67 -23 -61 -36 -80 -121 -41 -181 14 -21 20 -24 37 -14 37 19 29 4
-26 -50 -83 -81 -100 -131 -69 -197 l16 -34 37 22 36 22 -42 -46 c-47 -52 -59
-93 -50 -170 10 -81 75 -135 145 -122 20 4 71 8 112 8 41 1 82 6 91 11 26 16
41 53 41 101 0 52 -22 90 -60 106 -34 13 -108 13 -146 -2 -42 -16 -43 -6 -1
20 27 17 54 23 106 25 39 1 75 7 81 13 19 19 25 76 13 128 -29 129 0 210 90
244 38 14 30 5 -19 -24 l-45 -26 2 -70 c2 -57 7 -74 26 -94 l23 -25 -20 -33
c-24 -40 -23 -152 2 -177 14 -13 18 -13 38 6 13 11 39 25 58 31 28 9 31 9 15
-1 -76 -46 -123 -136 -117 -227 9 -138 59 -189 127 -130 45 39 47 30 4 -16
-67 -72 -87 -105 -105 -174 -22 -87 -9 -187 28 -218 8 -6 35 -13 61 -15 63 -6
86 9 237 150 31 28 77 61 103 72 26 11 47 19 47 17 0 -2 -19 -16 -42 -32 l-43
-28 53 -12 c44 -10 86 -11 145 -5 11 1 9 231 -2 231 -6 0 -12 -4 -15 -9 -3 -5
-48 -9 -99 -9 -59 0 -105 -5 -127 -14 -57 -24 -126 -97 -155 -162 -32 -72 -41
-69 -17 6 26 78 65 141 105 168 32 22 35 28 36 77 0 30 3 58 6 63 4 6 -2 22
-13 38 -30 42 -30 53 -7 122 12 36 20 77 19 92 -3 31 -40 116 -60 135 -8 8
-14 33 -14 56 0 23 -9 61 -20 85 -15 34 -19 61 -17 142 2 93 1 102 -21 126
-28 30 -54 117 -43 145 5 15 10 5 19 -40 10 -47 20 -66 47 -89 l34 -30 -2 -94
c-2 -74 2 -103 17 -136 21 -46 28 -49 66 -27 32 18 50 19 50 1 0 -7 -24 -22
-52 -33 -67 -25 -68 -44 -14 -131 47 -75 52 -120 24 -204 -18 -53 -18 -58 -3
-88 15 -30 20 -32 54 -27 21 2 57 18 80 33 24 16 62 40 85 54 42 25 43 25 45
88 l2 63 -28 -7 c-55 -12 -90 -34 -118 -74 -15 -22 -31 -40 -36 -40 -38 0 20
87 84 124 24 14 56 26 70 26 25 0 27 3 27 48 l0 48 -72 12 c-40 7 -78 13 -85
14 -25 3 -1 18 28 18 25 0 29 4 29 29 0 84 -64 161 -134 161 -36 0 -38 1 -22
13 16 12 17 18 7 49 -6 20 -21 44 -31 53 -11 10 -20 25 -20 34 0 12 3 12 12 3
19 -19 28 -14 28 16 0 41 -34 84 -82 103 l-43 18 33 0 c36 1 40 14 15 51 -23
34 -30 38 -90 50 -29 6 -56 17 -60 24 -12 20 -65 42 -90 38z m-205 -311 c-3
-26 -16 -71 -30 -101 l-26 -55 3 38 c2 31 -1 38 -19 42 -11 2 -30 6 -41 8 -11
3 -3 5 18 6 54 2 91 40 84 87 -4 23 -2 32 5 28 6 -4 8 -26 6 -53z m287 -232
c-12 -37 3 -69 33 -70 23 -1 21 -2 -12 -10 -21 -5 -51 -18 -66 -29 l-28 -20
25 63 c24 59 40 87 50 87 2 0 1 -9 -2 -21z m-279 -11 c-14 -19 -13 -24 5 -50
11 -15 16 -28 10 -28 -6 0 -11 4 -11 9 0 10 -44 29 -83 37 -16 2 -42 -2 -59
-11 -38 -18 -43 -19 -26 -2 26 26 59 38 92 33 25 -4 38 -1 51 14 24 27 40 25
21 -2z m404 -454 c0 -6 -106 -54 -119 -54 -5 0 -8 8 -7 17 2 13 19 21 62 29
32 6 60 12 62 13 1 0 2 -1 2 -5z"/>
<path d="M938 2305 c-21 -14 -49 -45 -63 -69 -15 -27 -37 -48 -53 -54 -39 -13
-92 -69 -92 -95 l0 -22 18 20 c9 12 26 27 37 35 18 13 17 12 -2 -10 -12 -14
-26 -37 -32 -53 -9 -23 -7 -31 9 -47 23 -23 33 -24 62 -9 30 16 34 2 8 -26
-16 -17 -34 -25 -56 -25 -51 0 -79 -46 -79 -132 0 -57 4 -70 25 -93 17 -18 19
-24 7 -20 -9 4 -26 22 -38 41 -11 19 -23 34 -25 34 -2 0 -4 -45 -4 -100 0 -95
1 -101 23 -111 l22 -10 -22 5 c-21 4 -23 1 -23 -45 l0 -49 42 21 c33 17 54 20
97 16 l56 -5 3 46 c3 39 -1 49 -30 80 l-33 34 32 -16 c32 -16 33 -16 39 9 4
18 1 30 -10 38 -21 15 -30 73 -21 132 4 33 17 58 41 85 34 37 35 40 24 80 -20
75 1 140 64 202 32 31 33 36 29 86 -3 28 -8 52 -12 52 -3 0 -23 -11 -43 -25z"/>
<path d="M1663 2323 c-20 -7 -15 -29 12 -61 14 -17 25 -37 25 -46 0 -11 7 -15
23 -12 12 3 30 5 40 5 40 2 2 86 -48 107 -19 8 -36 14 -37 13 -2 0 -9 -3 -15
-6z"/>
<path d="M1707 2173 c-19 -18 18 -133 42 -133 4 0 24 -11 44 -24 44 -30 72
-36 71 -16 -1 32 -17 69 -35 86 -10 9 -19 24 -19 32 0 12 7 9 26 -9 31 -29 49
-62 59 -109 4 -19 16 -46 26 -59 l19 -24 0 55 c0 82 -13 107 -84 161 -50 38
-70 47 -103 47 -22 0 -43 -3 -46 -7z"/>
<path d="M672 2008 c-7 -7 -12 -43 -12 -92 0 -77 5 -97 12 -45 2 14 14 46 27
71 24 45 23 78 -2 78 -7 0 -18 -5 -25 -12z"/>
<path d="M1866 1910 c9 -22 14 -49 11 -60 -5 -21 24 -50 50 -50 36 0 -11 116
-57 140 -20 11 -20 10 -4 -30z"/>
<path d="M1871 1439 c-59 -44 -110 -64 -141 -54 -23 7 -43 -25 -45 -76 -2 -36
-1 -37 39 -38 23 0 57 -5 76 -11 56 -16 87 -12 115 15 23 24 25 33 25 115 0
50 -3 90 -7 90 -5 0 -33 -19 -62 -41z"/>
<path d="M748 1455 c-15 -8 -37 -33 -49 -55 -12 -21 -25 -37 -29 -35 -4 2 -6
-30 -6 -72 l1 -77 65 -13 c166 -32 167 -32 212 -79 23 -24 60 -79 83 -122 38
-73 43 -78 88 -92 29 -9 54 -25 60 -37 16 -29 61 -63 97 -73 26 -7 33 -5 46
15 12 19 14 41 9 111 -10 122 -30 171 -89 210 -67 45 -67 48 -3 19 l57 -25 2
23 c5 77 -21 167 -57 197 -25 21 -111 38 -152 31 -87 -16 -154 0 -192 46 -23
28 -37 36 -73 39 -27 3 -53 -1 -70 -11z"/>
<path d="M662 1410 c0 -19 2 -27 5 -17 2 9 2 25 0 35 -3 9 -5 1 -5 -18z"/>
<path d="M660 1089 c0 -50 5 -100 11 -112 31 -60 94 -102 138 -92 26 6 30 15
34 83 0 7 7 11 16 9 9 -2 15 -7 15 -13 -16 -104 -16 -108 16 -156 17 -25 42
-54 56 -63 26 -17 102 -22 147 -10 20 6 20 4 -5 -17 l-26 -23 23 -17 c13 -10
28 -18 34 -18 5 0 13 -4 16 -10 7 -12 -34 3 -67 24 -13 8 -41 16 -64 19 -52 5
-93 36 -139 103 -32 46 -42 54 -70 54 -29 0 -33 -4 -44 -42 -12 -38 -14 -41
-26 -24 -10 13 -11 25 -3 48 10 27 8 32 -23 58 l-34 28 -3 -30 c-2 -20 3 -34
15 -44 17 -12 17 -13 1 -14 -16 0 -18 -11 -18 -79 0 -79 0 -80 33 -99 45 -28
100 -42 120 -30 10 5 17 21 18 36 1 23 2 22 11 -10 13 -48 71 -96 121 -100 47
-3 52 3 27 35 -26 32 -7 48 21 18 51 -54 144 -69 227 -36 54 22 62 38 62 124
l0 71 -30 0 c-23 0 -44 13 -87 55 -31 30 -61 55 -65 55 -16 0 -83 38 -100 56
-9 11 -31 48 -48 84 -18 36 -44 75 -59 87 -31 26 -78 29 -109 7 -31 -22 -39
-11 -12 16 12 12 20 23 18 25 -9 9 -102 35 -123 35 -25 0 -25 -1 -25 -91z"/>
<path d="M1685 983 c-22 -15 -56 -41 -75 -59 -112 -103 -130 -113 -197 -110
-38 2 -41 0 -58 -38 -31 -70 -35 -111 -14 -146 10 -16 24 -30 30 -30 8 0 6 -7
-4 -18 -10 -10 -17 -31 -17 -46 0 -70 57 -106 168 -109 71 -2 82 1 123 27 47
31 81 65 104 107 15 28 11 85 -8 108 -10 12 -9 12 11 2 13 -7 28 -25 33 -41 9
-25 14 -27 42 -23 18 2 51 16 75 29 35 21 42 30 42 55 0 24 -3 30 -16 25 -43
-16 -68 -17 -113 -2 l-49 16 -146 -65 c-80 -35 -146 -61 -146 -57 0 4 61 41
135 81 143 77 165 98 165 161 0 17 -7 44 -15 60 -9 17 -12 30 -8 30 15 0 30
-15 45 -45 13 -25 14 -38 3 -77 -11 -43 -10 -50 6 -64 23 -21 82 -21 114 0 24
16 25 20 24 119 -1 68 -4 92 -9 72 -8 -31 -8 -32 -14 27 -1 10 -124 35 -181
38 -6 0 -28 -12 -50 -27z m-228 -379 c-3 -3 -12 -4 -19 -1 -8 3 -5 6 6 6 11 1
17 -2 13 -5z m124 -50 c77 2 79 2 62 -15 -22 -22 -91 -29 -152 -16 -51 10 -66
20 -57 35 4 7 17 7 37 2 17 -5 67 -8 110 -6z"/>
<path d="M660 600 c0 -35 31 -55 100 -63 29 -3 48 -11 55 -23 5 -11 29 -38 52
-60 42 -43 89 -59 158 -57 26 1 126 42 242 101 31 16 53 48 53 79 0 13 -6 11
-27 -9 -44 -41 -90 -55 -168 -51 -96 5 -112 5 -171 2 -53 -3 -94 17 -111 55
-7 13 -22 19 -56 21 -26 2 -61 11 -79 19 -43 22 -48 20 -48 -14z"/>
<path d="M1892 588 c-24 -11 -57 -20 -73 -20 -22 -1 -34 -9 -49 -35 -11 -19
-20 -36 -20 -39 0 -7 73 3 117 16 52 16 76 40 71 72 l-3 25 -43 -19z"/>
<path d="M680 523 c0 -12 31 -55 54 -77 79 -70 176 -110 238 -97 l33 7 -36 7
c-48 10 -108 50 -143 97 -26 35 -48 46 -101 51 -5 1 -18 5 -27 10 -10 5 -18 6
-18 2z"/>
<path d="M1885 485 c-27 -13 -70 -27 -95 -30 -35 -5 -56 -17 -100 -58 -42 -39
-69 -56 -109 -66 -29 -7 -55 -10 -58 -7 -4 3 1 6 11 6 25 0 97 44 131 81 l30
31 -42 -21 c-51 -26 -116 -28 -213 -7 -47 10 -78 12 -84 6 -18 -18 -10 -72 13
-92 29 -22 20 -23 -25 -2 -19 9 -34 23 -34 30 0 12 -13 14 -62 10 -42 -4 -53
-3 -33 3 55 14 92 40 99 67 4 14 5 28 3 30 -6 7 -159 -55 -178 -72 -10 -9 -19
-27 -19 -40 0 -24 24 -54 43 -55 7 0 31 -2 55 -5 27 -4 49 -1 60 7 15 12 16
11 2 -3 -8 -9 -40 -21 -70 -26 -45 -8 -63 -7 -105 8 -27 10 -76 20 -108 22
-56 4 -58 4 -37 -12 12 -9 42 -17 68 -19 25 -1 53 -6 62 -11 10 -5 39 -14 65
-20 60 -13 107 0 152 43 l33 31 37 -21 c47 -25 90 -24 239 3 17 3 63 30 102
59 39 29 90 60 115 70 25 9 60 32 78 51 18 19 31 34 28 33 -2 0 -26 -11 -54
-24z"/>
<path d="M660 345 c0 -77 4 -146 9 -154 6 -10 31 -15 81 -16 62 -1 75 2 96 22
29 26 43 28 68 10 15 -11 19 -30 21 -97 2 -68 5 -86 21 -97 15 -11 86 -13 357
-13 401 1 377 -6 377 114 0 54 4 79 16 90 22 22 51 20 77 -7 18 -18 33 -22 87
-22 l65 0 3 128 c1 70 -1 127 -5 127 -4 0 -26 -9 -48 -19 -22 -10 -56 -26 -75
-35 -19 -9 -60 -34 -90 -56 -93 -67 -249 -98 -337 -66 -39 14 -44 13 -67 -5
-64 -51 -144 -57 -228 -19 -24 11 -56 20 -72 20 -30 0 -236 112 -290 157 -17
14 -39 37 -48 52 -17 25 -18 22 -18 -114z"/>
</g>
</svg>
